
<svg id="Layer_1" enable-background="new 0 0 128 128" height="512" viewBox="0 0 128 128" width="512" fill="#ff9d33" xmlns="http://www.w3.org/2000/svg"><path d="m92.4 73.5c-.7-2.5-3.3-4-5.8-3.3-1.5.4-2.8 1.6-3.2 3.1h-9.1c0-.5 0-1 0-1.5l-.5-5.8c7.9-3.8 12.9-11.7 12.9-20.4h6.8c1 0 1.8-.8 1.8-1.8v-7.1c0-1-.8-1.8-1.8-1.8h-6.8v-3.8c.1-12.4-10.1-22.6-22.7-22.6s-22.7 10.2-22.7 22.8v3.7h-6.8c-1 0-1.8.8-1.8 1.8v7.1c0 1 .8 1.8 1.8 1.8h6.8c0 8.7 5.1 16.6 12.9 20.4l-.4 5.9v1.5h-9.1c-.8-2.5-3.4-3.9-5.9-3.1-1.5.5-2.7 1.7-3.1 3.2-8.5 1-14.9 8.3-14.9 16.9v27.4c0 1 .8 1.8 1.8 1.8s1.8-.8 1.8-1.8v-27.5c0-6.6 4.7-12.2 11.2-13.3v40.6c0 1 .8 1.8 1.8 1.8s1.8-.8 1.8-1.8v-7.8c3.5-.8 6-3.9 6-7.5v-25.5h.9c1.6 4.9 4.6 9.2 8.6 12.5.6.5 1.5.5 2.2 0l7.5-6 7.5 6c.6.5 1.5.5 2.2 0 4-3.3 6.9-7.6 8.6-12.5h.8v25.5c0 3.6 2.5 6.7 6 7.5v7.8c0 1 .8 1.8 1.8 1.8s1.8-.8 1.8-1.8v-40.6c6.5 1.1 11.2 6.7 11.2 13.3v27.4c0 1 .8 1.8 1.8 1.8s1.8-.8 1.8-1.8v-27.4c-.7-8.6-7-15.8-15.5-16.9zm-28.4-61.5c9.9 0 18.2 7.6 19.2 17.5h-38.4c1-9.9 9.3-17.5 19.2-17.5zm-19.2 21h38.5v2h-38.5zm-8.5 5.5h55.5v3.6h-55.5zm8.5 7.1h38.5c-.1 10.6-8.8 19.2-19.4 19.1s-19.1-8.6-19.1-19.1zm19.2 22.7c2.2 0 4.3-.3 6.4-.9l.3 4.9c.3 3.7-2.5 6.9-6.3 7.2-3.7.3-6.9-2.5-7.2-6.3 0-.3 0-.6 0-.9l.3-4.9c2.2.5 4.3.9 6.5.9zm-25.1 38v-31.5c0-.7.6-1.3 1.3-1.3s1.3.6 1.3 1.3v27.5c-.1 1.7-1 3.3-2.6 4zm16.6-20.6c-2.6-2.5-4.6-5.5-6-8.8h5.1c1.1 2.4 3 4.2 5.4 5.2zm17 0-4.5-3.6c2.4-1 4.3-2.9 5.3-5.2h5.2c-1.3 3.3-3.4 6.3-6 8.8zm14.1 16.7v-27.6c0-.7.6-1.3 1.3-1.3s1.3.6 1.3 1.3v31.4c-1.7-.6-2.6-2.2-2.6-3.8z"/><path d="m64 89.4c-1.3 0-2.3 1-2.3 2.3s1 2.3 2.3 2.3 2.3-1 2.3-2.3-1-2.3-2.3-2.3z"/><path d="m64 99.3c-1.3 0-2.3 1-2.3 2.3s1 2.3 2.3 2.3 2.3-1 2.3-2.3-1-2.3-2.3-2.3z"/><path d="m64 109.2c-1.3 0-2.3 1-2.3 2.3s1 2.3 2.3 2.3 2.3-1 2.3-2.3-1-2.3-2.3-2.3z"/><path d="m71.1 55.2c0-1-.8-1.8-1.8-1.8s-1.8.8-1.8 1.8c0 2-1.6 3.6-3.6 3.6s-3.6-1.6-3.6-3.6c0-1-.8-1.8-1.8-1.8s-1.8.8-1.8 1.8c0 3.9 3.2 7.1 7.1 7.1s7.3-3.2 7.3-7.1z"/></svg>