<?xml version="1.0" encoding="iso-8859-1"?>
<!-- Generator: Adobe Illustrator 19.0.0, SVG Export Plug-In . SVG Version: 6.00 Build 0)  -->
<svg version="1.1" id="Capa_1" fill="#ff9d33" height="512"  width="512" xmlns="http://www.w3.org/2000/svg" xmlns:xlink="http://www.w3.org/1999/xlink" x="0px" y="0px"
	 viewBox="0 0 512 512" style="enable-background:new 0 0 512 512;" xml:space="preserve">
<g> 
	<g>
		<path d="M443.104,383.604c-32.209-9.345-74.491-16.063-121.034-19.336l71.207-107.698C411.414,229.43,421,197.766,421,165
			C421,74.019,346.981,0,256,0S91,74.019,91,165c0,32.765,9.586,64.429,27.681,91.509l71.248,107.759
			c-46.543,3.273-88.825,9.992-121.033,19.336C40.569,391.822,0,407.465,0,437c0,24.257,27.648,43.43,82.176,56.983
			C128.916,505.602,190.648,512,256,512c65.353,0,127.084-6.398,173.824-18.017C484.353,480.43,512,461.258,512,437
			C512,407.458,471.413,391.817,443.104,383.604z M143.665,239.903C128.837,217.712,121,191.811,121,165
			c0-74.439,60.561-135,135-135s135,60.561,135,135c0,26.812-7.838,52.713-22.706,74.963L256,409.803L143.665,239.903z
			 M470.395,447.416C423.799,474.746,314.798,482,256,482c-56.113,0-167.036-6.807-214.395-34.584C32.065,441.82,30,437.716,30,437
			c0-2.158,8.409-13.313,47.255-24.584c34.068-9.884,80.617-16.665,131.784-19.245l34.449,52.102
			c2.777,4.2,7.477,6.727,12.512,6.727s9.735-2.527,12.512-6.727l34.449-52.102c51.167,2.581,97.716,9.361,131.784,19.245
			C473.591,423.687,482,434.842,482,437C482,437.716,479.935,441.82,470.395,447.416z"/>
	</g>
</g>
<g>
	<g>
		<path d="M256,90c-41.355,0-75,33.645-75,75s33.645,75,75,75c41.355,0,75-33.645,75-75S297.355,90,256,90z M256,210
			c-24.813,0-45-20.187-45-45s20.187-45,45-45s45,20.187,45,45S280.813,210,256,210z"/>
	</g>
</g>
<g>
</g>
<g>
</g>
<g>
</g>
<g>
</g>
<g>
</g>
<g>
</g>
<g>
</g>
<g>
</g>
<g>
</g>
<g>
</g>
<g>
</g>
<g>
</g>
<g>
</g>
<g>
</g>
<g>
</g>
</svg>
