<svg id="Layer_1" enable-background="new 0 0 64 64" height="512" viewBox="0 0 64 64" width="512" fill="#ff9d33" xmlns="http://www.w3.org/2000/svg"><path d="m30 56h4v2h-4z"/><path d="m30 52h4v2h-4z"/><path d="m57.5 45.5-4.8-11.5h-2.3l-.7 1.5-9.1-5.7 1.9-1.4c3.4-2.4 5.6-6.3 5.8-10.5l.2-2.5c.3-4.2-2.1-8.1-6-9.8l-5.7-2.6c-3.1-1.3-6.5-1.3-9.6 0l-5.8 2.5c-3.9 1.7-6.2 5.6-6 9.8l.2 2.5c.3 4.2 2.4 8 5.8 10.5l1.9 1.4-10.2 6.4c-3.2 2-5.2 5.5-5.2 9.3v16.6h48v-9c2.1-2 2.6-4.9 1.6-7.5zm-14.1-11.6-5.6 4.2c-.4.3-1 .3-1.3-.1l-2.8-2.8 1.6-.8c1.5-.8 2.9-1.8 4.1-3.1zm-7.9 5.9-3.5 7-3.5-7c.1-.1.3-.2.4-.3l3.1-3.1 3.1 3.1c.1.1.2.2.4.3zm-14.5-22.5v4.7c0 1.3.2 2.7.6 4-2.3-2.1-3.8-5-4-8.2l-.2-2.5c-.2-3.4 1.7-6.5 4.8-7.9l5.8-2.5c2.6-1.1 5.5-1.1 8 0l5.8 2.5c3.1 1.4 5 4.5 4.8 7.9l-.2 2.5c-.2 3.1-1.6 6.1-4 8.2.4-1.3.6-2.6.6-4v-4c0-1.7-1.3-3-3-3h-3c-1.1 0-2-.9-2-2v-3.5l-12.2 5.1c-1.1.4-1.8 1.5-1.8 2.7zm2 4.7v-4.6c0-.4.2-.8.6-.9l9.4-3.9v.4c0 2.2 1.8 4 4 4h3c.6 0 1 .4 1 1v4c0 4.5-2.6 8.7-6.6 10.7l-1.9 1c-.3.1-.6.1-.9 0l-1.9-1c-4.1-2-6.7-6.2-6.7-10.7zm1.6 9.4c1.2 1.3 2.5 2.3 4.1 3.1l1.6.8-2.8 2.8c-.4.3-.9.4-1.3.1l-5.6-4.2zm1.4 28.6h-6v-12h-2v12h-8v-14.5c0-3.1 1.6-6 4.2-7.6l4.5-2.8 6.2 4.7c.4.3 1 .5 1.5.6l3.8 7.7h-4.2zm10 0h-8v-10h8zm18 0h-16v-12h-4.4l3.8-7.7c.6 0 1.1-.2 1.5-.6l6.2-4.7 3.7 2.3-8.8 20.2 1.8.8 4.4-10.2 2.2.7c1.1.4 1.7 1.6 1.3 2.7-.3.9-1.1 1.4-2 1.4h-.7v2h4.2c1 0 1.9-.2 2.8-.6zm-2.6-7c.1-.2.2-.4.3-.6.8-2.1-.2-4.5-2.3-5.3-.1 0-.1-.1-.2-.1l-2-.7 4.3-10 4.1 9.9c1 2.5-.1 5.3-2.6 6.3-.5.3-1 .5-1.6.5z"/></svg>